<svg xmlns="http://www.w3.org/2000/svg" viewBox="0 0 128 128" role="img" aria-labelledby="iris-Q-title" color="black"><title id="iris-Q-title">Iris decorative initial Q</title><desc>Original bowed, tapering plant-stem capital intertwined with iris petals, lanceolate leaves, and whiplash tendrils. All open spaces are transparent.</desc><path fill="currentColor" fill-rule="evenodd" d="M32.48 16.55l.24 -1.82 -.02 -1.84 -.3 -2.03 -.51 -1.81 -1.49 1.18 -1.15 1.3 -1.11 1.77 -.69 1.67 -.37 1.75 -.01 1.78 .32 1.47 .65 1.42 -3.54 1.96 -3.78 2.63 -2.89 2.39 -.2 .33 .03 .39 .11 .17 .15 .13 .38 .09 .37 -.16 2.36 -1.97 2.32 -1.72 2.28 -1.48 2.22 -1.24 3.44 -1.52 1.65 -.54 2 -.48 2.67 -.34 2.37 .05 -.35 .98 -.16 .92 .02 .88 .17 .84 .31 .81 .58 .99 1.32 1.45 1.27 -.82 -1.19 -2.2 -1.02 -2.23 -.57 -1.46 .03 -.28 .14 -.11 .28 .03 .12 .14 1.31 3.11 1.42 2.69 1.17 -.67 -.03 -.76 .19 -.21 .34 .09 .1 .57 .64 -.33 -.95 -2.25 -.15 .23 -.44 -.72 -.65 -.75 1.17 .55 1.07 .65 1.77 1.46 1.28 -.51 -1.78 -1.61 -2.04 -1.27 -1.95 -.8 -2.44 -.57 -2.63 -.18 -2.39 .17 -2.5 .49 -2.73 .85 .69 -.92 .42 -.78ZM30.14 17.56l-1.33 3.72 -.28 .03 -.15 -.11 -.03 -.28 .92 -2.66 .78 -2.62 .63 -2.57 .49 -2.52 .16 -.23 .19 -.03 .17 .09 .08 .27 -.69 3.41ZM65.42 22.35l-3.56 -.31 -2.73 -.01 -4.02 .44 -2.62 .57 -2.55 .8 -2.48 1 -1.98 .98 .09 5.27 -.16 5.29 1.61 -1.7 1.56 -1.46 2.5 -2.01 1.78 -1.21 1.88 -1.12 1.99 -1 2.11 -.88 1.87 -.64 -3.95 .11 -3.95 -.21 -1.65 -.18 -.17 -.22 .15 -.32 5.92 .32 2.59 -.05 2.24 -.17 .18 .04 .15 .23 2.69 -.61ZM33.28 31.01l-.99 -1.28 -.99 1.32 -.77 1.55 -.5 1.69 -.18 1.46 .06 1.46 .4 1.54 2.25 -3.09 -.49 -4.41 .08 -.27 .36 -.06 .16 .23 .46 3.8 1.39 -1.59 -.51 -1.1ZM28.5 35.7l-.34 -1.88 .14 -2.25 -.18 -.35 -.35 -.18 -.2 0 -.35 .18 -.12 .16 -.14 .67 -.09 1.4 .2 1.79 .36 1.24 .53 1.2 .7 1.14 .88 1.12 .72 -1.11 -.99 -1.4ZM23.99 44.97l-1.09 -.92 -1.08 -.76 -.33 1.3 -.17 1.41 .01 1.47 .14 1.19 .35 1.48 .41 1.13 .55 1.08 .69 1.01 1.15 -3.4 -1.11 -2.47 -1.31 -2.54 -.01 -.28 .32 -.17 .23 .16 2.19 4.47 .88 -2.13ZM34.62 63.75l.19 -.2 -.16 -.09 -.02 .11ZM20.08 63.23l-1.56 1.67 -1.12 1.62 -.96 1.82 -.79 2.01 -1.19 -1.34 -1.16 -1.09 -1.46 -1.15 -1.49 -.99 -2.39 -1.22 .08 .95 -.47 -.09 .05 1.39 .29 1.42 .51 1.4 .56 1.05 .9 1.18 1.27 1.11 1.39 1.61 .92 .82 1.02 .74 -.14 2.41 0 2.28 .17 3 .28 2.56 .17 .36 .34 .19 .39 -.05 .17 -.12 -.47 5.4 -.22 5.65 -.66 -1.23 -.91 -1.18 -1.08 -1.05 -1.48 -1.08 -2.43 -1.28 -2.61 -.89 0 .85 2.86 2.2 2.73 2.35 3.6 3.48 .05 .35 -.22 .16 -.27 -.08 -4.24 -4.06 -2.26 -1.91 -2.25 -1.73 0 2.95 .95 1.3 1.04 1.13 1.17 .99 1.01 .68 1.37 .65 1.15 .36 1.21 .2 1.26 0 .17 5.9 .4 5.87 .15 .36 .34 .2 .39 -.03 .17 -.1 .2 -.34 .02 -.2 -.44 -6.77 -.13 -5.6 .09 -5.4 .36 -5.56 .95 .15 .92 .03 1.77 -.28 1.93 -.81 1.63 -1.12 -.71 -1.98 -3.06 1.89 -3.05 1.67 -.28 0 -.17 -.22 .17 -.32 3.29 -1.81 2.91 -1.81 -.74 -2.63 -1.51 .69 -1.51 .99 -1.3 1.23 -.92 1.31 .71 -4.83 .78 -3.88 1.15 -4.46 1.16 -3.61 .17 -3.97 -1.64 4.32 -1.56 5.27 -.53 -1.78 -.86 -1.68 .86 -2.45 1.24 -2.35 .84 -1.17 .93 -1.06 .76 -.72 .09 .23 .26 -2.13ZM17.43 77.37l-1.04 5.48 -.4 2.87 -.38 -4.93 .09 -3.99ZM8.89 66.24l.08 -.36 .17 -.08 .26 .1 3.17 3.67 2.36 3.05 2.32 3.26 .4 .61 -.13 .34 -.27 .03 -.15 -.11 -2.15 -3.07 -.34 -.11 -2.87 -3.5 -1.59 -1.68 -1.9 -1.79 .03 -.35 .26 -.11 .96 .78ZM61.22 102.26l-.21 -1.41 -.34 -1.29 -1.19 .72 -1.32 1.15 -.96 1.15 -.84 1.43 2.41 .81 1.13 -3.97 .18 -.21 .19 -.01 .21 .18 .01 .18 -1.13 4 1.75 .48 .16 -1.42ZM47.05 112.63l-2.7 .33 -2.75 .2 -2.78 .05 -2.52 -.08 .78 -.46 .85 -.76 .69 -.91 .55 -1.03 .56 -1.67 .28 -1.64 -.56 -.36 -.01 .33 -.5 .7 -2.25 2.75 -2.89 2.85 -.32 .26 -.28 -.02 -.14 -.23 .1 -.26 2.88 -2.79 1.53 -1.78 1.36 -1.83 .28 -.13 -.82 -.55 -1.46 .37 -1.31 .6 -1.16 .82 -.77 .82 -.59 .95 -.39 1.08 -.15 1.2 .13 1.36 -2.49 -.36 -2.94 -.57 -2.98 -.74 -3.01 -.92 -.39 0 -.18 .09 -.14 .14 -.12 .37 .12 .37 .32 .24 3.06 .93 3.79 .92 3.76 .66 2.96 .34 3.64 .2 3.57 -.04 3.18 -.24 .03 1.31 .3 1.17 .53 1.05 .93 1.15 1.15 .96 1.56 .92 1.64 .64 1.59 .38 -.03 -1.1 -.26 -1.4 -.48 -1.38 -.55 -1.05 -.68 -.96 -.81 -.84 -.95 -.69 -1.13 -.53 4.92 -1.02 4.49 -1.36 -3.66 -.18 -3.08 .77ZM45.41 114.55l-.25 -.43 .12 -.25 .18 -.06 .25 .12 1.53 1.91 1.76 1.98 2.85 2.73 .11 .26 -.08 .17 -.16 .1 -.27 -.07 -2.08 -1.93 -2.01 -2.15ZM68.13 18.28l-.52 -2.66 -.93 -2.54 -1.39 1.63 -1.17 2.01 -.85 2.27 -.41 2.23 1.82 .23 .87 .01 .38 -3.24 .22 -3.37 .13 -.24 .28 -.04 .2 .3 -.2 3.12 -.39 3.45 2.03 -.14 .04 -1.47ZM99.03 27.91l-2.34 -1.3 -2.27 -.86 -2.1 -.36 -.81 .01 -.89 .14 2.23 1.23 1.95 .19 1.85 .43 1.9 .67 1.96 .92ZM60.03 27.9l2.16 -1.04 -3.03 .98 -1.83 .76 1.25 -.24ZM110.14 46.03l-1.23 .76 .41 1.22 1.26 -.74 .98 -.71 .92 .28 -.24 -.86 .94 -.92 1.09 -1.28 -.14 1.65 .16 1.81 .43 1.8 .8 2.05 1.03 1.95 1.39 2.06 1.51 1.8 1.71 1.65 .44 -2.34 .06 -2.32 -.31 -2.73 -.62 -2.42 -.97 -2.28 -1.14 -1.81 -1.43 -1.54 -1.69 -1.2 .5 -.95 1.18 -.81 -.31 -1.34 .37 -1.33 .28 -1.48 .14 -1.51 0 -1.51 -.3 -2.25 -.64 -2.18 -1.03 -2.1 -1.15 -1.64 .58 -1.92 .12 -.9 -.03 -1.11 1.68 -1.15 1.52 -1.48 1.25 -1.63 1.05 -1.87 -1.91 -.2 -1.75 .14 -2.06 .5 -1.67 .75 -1.49 1.02 -1.05 1.08 -.83 1.27 -.54 1.47 -2.42 -1.02 -4.62 -1.25 -1.16 -1.19 -1.32 -.94 -.69 1.5 -2.9 -.39 -2.77 -.18 -2.69 0 -2.65 .2 1.36 -1.15 1.12 -1.44 .99 -1.93 .67 -2.09 .43 -2.42 .1 -2.25 -1.87 0 -1.38 1.16 -1.23 1.34 -1.06 1.51 -.85 1.65 -.49 1.44 -.27 1.49 -.01 1.51 .28 1.49 -2.69 .56 -2.97 .87 -2.93 1.09 -2.74 1.22 2.71 .17 2.78 -1.08 2.88 -.89 2.95 -.65 2.42 -.35 2.5 -.18 1.93 -.02 2.67 .14 2.16 .23 -.39 1.25 -.14 1.52 .2 1.48 .6 1.69 .75 1.33 1.13 1.45 1.53 1.49 .31 .46 1.22 .74 -.67 -1.78 -1.32 -2.49 -1.13 -2.43 -1.71 -4.44 .21 -.29 .27 .04 .12 .15 1.32 3.46 1.38 3.06 -.65 -3.09 -.45 -3.03 .95 -.12 .43 2.98 .65 3.08 .81 2.77 .92 2.35 .98 -1.85 .04 -2.56 -.18 -1.71 -.35 -1.66 -.52 -1.56 -.55 -1.16 3.2 .91 2.44 1.06 -1.08 1.31 -.82 1.24 -.75 1.36 -.76 1.66 1.45 -2.04 1.56 -1.73 1.65 -1.39 1.75 -1.06 .43 .85 -1.17 .67 -1.13 .83 -1.09 1 -1.05 1.16 -1.01 1.34 -.97 1.5 -1.65 3.14 -.43 -.2 -.27 .39 -2.34 -1.52 -2.56 -1.34 -2.13 -.81 -2.09 -.51 1.56 1.12 2.05 1.68 1.93 1.84 1.97 2.19 .51 -.05 .73 -1.32 -1.69 .14 1.89 -.5 .3 -.53 .42 .24 .23 -.41 .53 .3 1.3 -.31 1.32 -.5 1.27 -.66 1.48 -1.01 1.33 -1.18 1.17 -1.32 1.02 -1.52 1.2 1.95 .82 2.2 -1.52 .24 -1.63 .71 -1.4 1.08 -1.2 1.37 -3.97 -.34 4.4 2.81 2.08 -2.35 2.15 -2.18 .99 -.92 .36 .07 .08 .17 -.1 .26 -2.62 2.59 -2.43 2.7 4.03 2.86 -.56 .76 -4.08 -2.88 -1.59 2.06 -.25 .13 -.18 -.06 -.11 -.15 .05 -.28 1.57 -2.04 -5.57 -3.5 -1.4 2.54 2.13 3.08 1.24 2.17 4.74 4.06 -.02 .36 -.16 .1 -.27 -.06 -3.51 -2.94 1.12 2.53ZM116.34 35.14l-.37 2.19 -1.16 -1.02 .9 -1.31 .69 -1.63ZM111.76 44.69l-.94 -1.87 -1.12 -1.74 .94 .47 1.13 .31 1.18 .08 1.17 -.19 -1.18 1.66ZM106.19 37.33l-1.33 -.97 -.2 -1.8 .2 0 .61 1.42ZM87.08 17.38l-.31 .4 -.27 -.02 -.13 -.14 .02 -.28 1.71 -2.99 1.53 -2.95 2.09 -4.75 .2 -.19 .19 .01 .19 .21 -.01 .19 -1.48 3.46 -1.73 3.5ZM110.5 21.1l-.48 .16 -.16 -.09 -.08 -.27 .17 -.22 2.78 -1.38 2.6 -1.47 3.83 -2.53 .18 -.06 .25 .13 .05 .18 -.12 .25 -2.86 1.93 -2.84 1.67ZM115.17 43.2l-.08 -.5 .2 -.19 .19 .01 .19 .2 1.19 3.87 1.39 3.97 2.45 5.83 -.02 .28 -.13 .12 -.19 .03 -.22 -.18 -1.93 -4.49 -1.55 -4.21ZM104.09 38.96l-1.19 -1.77 -.33 -.43 -.24 .46ZM68.85 22.18l-2.81 .18 -.59 3.35 -.34 1.39 -.27 .07 -.24 -.27 .19 -1.03 -.4 .42 -.62 .15 .2 .36 -.95 1.47 -9.05 5.92 -.24 -1.36 -.53 -1.99 -1.1 .75 .39 1.51 .29 1.86 -2.92 1.87 -1.03 .31 -.76 .39 -.91 .7 -.67 .69 -.59 .36 .8 -1.65 .53 -1.88 -1.91 2.09 -.18 1.7 -.25 .11 -.24 -.15 0 -.84 -.62 .8 .46 .67 -1.64 .97 -1.49 2.33 3.64 -2.12 -.5 1.34 1.11 .34 1.15 .17 1.17 0 .85 -.11 -1.76 .69 -1.97 .4 -2.11 .12 -1.99 -.14 -1.84 3.55 2.46 .45 2.08 -2.5 .42 -.46 .27 -.09 .23 .15 .01 .28 -2.32 2.73 3.09 .42 3.08 .26 .24 .14 .02 .28 -.3 .19 -1.12 -.07 -5.43 -.66 -1.98 3.1 -.32 .15 -.22 -.17 .01 -.28 1.84 -2.91 -2.32 -.44 -.7 1.63 .07 .04 -.1 .03 -.27 .65 -1.03 2.91 1.88 -2.96 .36 -.04 .15 .33 -1.24 2.06 -1.69 2.4 -1.12 4.76 2.19 .17 2.46 .34 4.72 1.05 -.24 1.24 .04 1.51 .35 1.46 .77 1.66 1.06 1.53 1.25 1.36 1.58 1.34 1.59 1.01 .2 -1.32 .02 -1.42 -.17 -1.47 -.36 -1.47 -.55 -1.42 -.57 -1.07 -.7 -.99 -.98 -1 5.01 1.79 5.38 2.37 -1.41 -.04 -1.47 .26 -1.39 .49 -1.48 .8 .49 .71 .78 .85 .92 .73 .75 .45 1.07 .43 .83 .19 .85 .05 .95 -.11 -1.51 1.88 -1.4 2.34 -.85 2.04 -.65 2.44 -.28 2.88 .19 2.83 .3 1.55 .44 1.52 1.12 2.61 -1.14 .6 -1.12 .99 -.86 1.21 -.71 1.65 -.29 1.18 -.17 1.21 0 2.39 .18 1.34 .84 .44 1.18 -.83 1.06 -1 .92 -1.15 .63 -1.02 .49 -1.09 .35 -1.13 .16 -1.17 -.04 -1.3 .82 .99 1.05 1.06 1.13 .93 1.2 .78 1.3 .67 1.33 .49 1.41 .33 .44 -.09 -.78 -1.28 -1.9 -.62 -1.71 -.93 -1.57 -1.23 -1.62 -1.75 -1.34 -2.05 -.91 -1.95 -.65 -2.09 -.38 -2.19 -.07 -2.04 .42 .94 .47 .74 .57 .68 .87 .82 .97 .71 1.05 .6 2.15 .87 -.18 -1.15 -1.72 -1.62 -1.66 -1.73 -1.82 -2.1 -1.05 -1.42 .2 -.3 .35 .1 2.77 3.31 2.94 2.95 .3 -1.82 .84 -.17 -.58 -1.09 -.87 -1.19 -1.29 -1.19 -1.26 -.74 -1.43 -.45 -1.6 -.11 .41 -1.42 .61 -1.5 .78 -1.47 .7 -1.08 1.1 -1.41 .95 -1.02 1.45 -1.3 1.29 -.98 3.4 1.94 -.86 1.06 -.64 1.37 -.25 1.44 .08 1.47 .36 1.44 .72 1.66 .94 1.5 1.25 1.46 .69 -.88 .72 -1.24 .53 -1.37 .26 -1.15 .11 -1.17 -.05 -1.16 -.34 -1.41 -.51 -1.09 .09 -.04 11.96 7.67 5.14 3.09 -1.39 3.01 -1.67 2.71 -2.53 3.24 -2.49 2.77 .79 1.02 3.55 -4.03 2.25 -3.06 1 .76 1.02 .51 .1 .16 1.29 -1.52 -2.97 -.1 -.28 -.23 .05 -.27 .26 -.11 2.91 .1 -.61 -3.27 -.12 -.94 .09 -.27 .36 -.04 .15 .23 .73 4.18 2.55 -3.66 -3.48 -1.78 .67 -2.64 2.08 1.03 2.31 .64 1.28 -2.65 -2.64 .02 -2.81 .16 -.3 -.19 .02 -.28 .23 -.14 1.7 -.12 4.07 -.06 .81 -2.07 -1.46 .06 -1.82 .32 -1.75 .53 -1.45 .61 .03 -1.53 -.16 -1.86 -.26 -1.36 -.54 -1.7 -.72 -1.56 -.91 -1.44 -1.08 -1.31 -1.12 -1.05 .79 -.7 .58 -.73 .55 -1.03 .26 -.89 5.98 6.23 4 4.57 .41 -1.5 -2.57 -2.94 1.16 -.97 1.13 -1.4 .85 -1.6 .58 -1.71 -.1 -4.78 -.22 -2.35 -.15 -1.13 -.34 -1.94 -1.28 1.33 -1.19 1.64 -1.02 1.86 -.79 2.01 -.51 2.1 -.16 1.82 .11 1.81 .4 1.65 -4.42 -4.55 -1.77 -1.99 -.14 -.94 -.3 -1.13 -.84 -1.88 -.6 -.97 -.82 -1.06 -.69 .65 -.78 -2.08 -.48 -2.37 -.06 -2.06 1.57 .2 1.5 -.14 1.42 -.42 1.59 -.83 1.44 -1.11 1.49 -1.54 1.23 -1.69 .95 -1.71 -.66 -1.1 -1.96 .07 -1.73 .32 -1.7 .58 -1.61 .82 -1.21 .87 -1.13 1.13 1.21 -2.01 1.45 -1.71 2.12 -1.85 2.24 -1.46 -.84 -.99 -.29 .18 .17 -.31 -1.14 -1.22 -.3 2.52 -.22 .17 -.27 -.08 -.09 -.26 .31 -2.9 -2.38 -2.05 .13 1.66 .38 1.47 .65 1.37 .73 1.01 -2.1 1.84 -1.58 1.86 -.79 1.2 -.65 1.24 -.8 2.21 -.39 2.39 .06 2.48 .53 2.59 .55 1.57 .55 1.25 -.9 1.67 -2.23 -.23 -2.46 .21 -2.41 .61 -2.55 1.03 -1.77 .96 -1.51 1.03 1.37 .78 1.55 .62 -2.16 .61 -2.06 .82 -1.57 .79 -2.71 1.61 -3.94 -2.05 .98 -.2 .74 -.33 .89 -.64 .77 -.83 .78 -1.21 .58 -1.33 .42 -1.63 -.28 -.1 -1.46 -.32 -1.48 -.05 -1.42 .25 -1.29 .55 -1.07 .87 -.65 .94 -.42 1.15 -.16 1.44 -5.56 -2.23 -5.24 -1.66 -5.5 -1.25 -4.49 -.52 1.34 -.89 1.15 -1.33 .96 -1.86 .58 -2.1 1.02 -.22 1.1 -.41 .77 -.41 .85 -.62 1.65 -.09 1.82 -.28 1.69 -.43 1.74 -.65 -.94 -.93 -1.35 -1.02 -1.28 -.74 -1.56 -.69 -.17 -.68 2.03 -.36 1.66 -.55 1.82 -.98 1.27 -1.07 1.06 -1.35 .77 -1.57 .45 -1.81 .11 -2.12 1.06 -.69 .79 1.24 1.25 1.29 1.49 1.04 1.97 .92 2.1 .65 2.14 .38 2.35 .16 2.11 -.11 -1.07 -1.48 -1.39 -1.44 -1.66 -1.3 -1.58 -.97 -1.7 -.77 -1.76 -.52 -1.79 -.24 -1.58 .06 5.32 -3.49 -.47 2.03 1.08 -.07 1.39 -.29 1.37 -.51 1.05 -.55 1.4 -1.08 1.14 -1.34 .66 -1.31 .35 -1.56 3.44 .81 2.23 .68 2.14 .79 2.02 .88 1.92 .99 2.69 1.66 1.66 1.22 1.76 1.49 .15 -3.36 -.18 .1 -.19 -.04 -1.22 -.7 -5.67 -3.59 -5 -3.6 -.13 -.25 .15 -.25 -3.1 -.07 -2.54 .17 .02 -.22ZM70.23 22.68l-.07 .58 -.09 .87 .08 -1.52ZM52.76 37.24l-.74 -.28 .8 -.51ZM62.19 68.75l-.52 .4 -.78 -1.08ZM68.11 67.13l-.59 1.3 -.37 1.66 -2.53 -1.45 2.06 -1.2 1.84 -.91ZM78.56 65.26l1.18 .3 1.48 .56 1.37 .73 1.25 .88 1.11 1.03 .98 1.17 .82 1.31 .58 1.22 -1.14 -.34 -.96 -.17 -1.82 -.59 -1.16 -.19 -1.38 -.07 .18 1.47 -1.2 .77 -.81 .83 -.78 1.33 -.39 1.33 -6.76 -4.33 .84 -.75 .72 -.87 .55 -.97 .28 -.79 .18 -1.13 -.03 -.89 -.19 -.92 -.38 -1.01 1.66 -.19 1.32 -.02ZM87.5 73.47l.11 -.23 .16 .52ZM88.1 79.97l-.65 2.83 -6.94 -4.26 .91 .01 1.1 -.23 .79 -.31 1 -.6 .85 .42 1.14 .3 .94 .05 1.04 -.12 -.1 1.31 -.44 .28ZM81.65 64.14l.49 1.01 -1.58 -.66ZM52.63 37.61l.28 .02 .12 .14 -.08 .36 -3.88 1.93 -1.72 1.07 -1.68 1.2 -.35 -.1 -.06 -.18 .12 -.25 2.36 -1.65 2.35 -1.34ZM44.89 61.94l.02 -.27 .14 -.13 .28 .02 .12 .14 2.36 4.98 1.28 2.3 1.36 2.16 .03 .28 -.12 .15 -.19 .05 -.24 -.14 -1.8 -2.95 -1.68 -3.18ZM56.47 92.08l.22 -.17 .19 .03 .14 .13 0 .28 -2.11 4.72 -.89 2.45 -.65 2.16 -.19 .2 -.19 .01 -.16 -.1 -.05 -.28 1.04 -3.28 1.2 -3.06ZM69.28 24.47l.28 -.05 .16 .1 .06 .18 -.11 .25 -3.66 3.25 -1.62 1.68 -1.48 1.71 -.25 .11 -.18 -.06 -.1 -.16 .06 -.28 2.1 -2.38 2.14 -2.1ZM55.76 35.06l-.17 -.23 .03 -.18 .14 -.14 .28 .01 5.78 2.72 2.97 1.2 2.92 1.04 .19 .2 0 .19 -.11 .15 -.28 .05 -4.02 -1.47 -3.83 -1.64ZM86.21 47.33l-3.7 2.04 -.23 -.16 0 -.28 .13 -.13 2.7 -1.52 2.54 -1.58 2.39 -1.66 2.23 -1.72 .27 -.06 .16 .1 .06 .28 -.1 .15 -3.21 2.42ZM84.52 66.44l-.08 .18 -.26 .09 -.26 -.24 .23 -2.53 .1 -2.43 -3.68 .15 -3.3 .26 -3.19 .39 -3.07 .51 -.27 -.08 -.09 -.26 .24 -.26 5.14 -.78 3.89 -.35 4.33 -.19 -.23 -3.81 .1 -.26 .26 -.08 .25 .27 .28 4.17ZM57.08 65.06l-.36 -.06 -.08 -.17 .09 -.27 1.98 -1.06 1.77 -1.09 1.4 -1 1.58 -1.31 .36 .07 .07 .27 -.1 .16 -2.24 1.81 -2 1.32ZM61.46 69.37l.13 .34 -.19 .2 -.19 .01 -3.89 -.85 -3.82 -.37 -.21 -.3 .14 -.24 .18 -.05 2.62 .19 2.69 .43ZM70.41 67.64l1.9 -2.69 .27 .04 .11 .16 -.04 .27 -1.23 1.78 -1.24 2.03 -.93 1.79 -.96 2.14 -.34 .09 -.19 -.21 .02 -.19 1.31 -2.88ZM88.58 77.21l.08 .27 -.09 .16 -.36 .05 -3.24 -3.05 -2.43 1.25 -2.79 1.17 -1.27 .43 -.25 -.12 -.06 -.18 .21 -.29 3.1 -1.2 2.99 -1.48 -2.87 -2.11 -.02 -.36 .24 -.14 1.36 .85 1.86 1.43 1.43 -.88 .36 .01 .11 .26 -.07 .17 -1.33 .86ZM67.08 71.75l.13 -.24 .18 -.06 .25 .13 .05 .18 .03 2.44 .15 2.35 .31 2.56 .41 2.18 -.02 .19 -.22 .17 -.18 -.02 -.18 -.21 -.57 -3.36 -.27 -2.93ZM94.78 69.13l-.19 .2 -.19 0 -.2 -.2 0 -.19 .98 -3.3 .9 -3.53 .68 -3.17 .57 -3.38 .16 -.23 .18 -.03 .17 .08 .09 .27 -.86 4.85 -.98 4.11ZM44.13 26.58l.71 1.12 -.12 .33 -.36 -.01 -.76 -1.12 -1.93 1.27 -2.14 1.63 -2.03 1.78 -1.91 1.93 -2.38 2.78 .05 2.91 -.13 2.09 -.34 .09 -.19 -.2 .03 -4.14 -2.06 2.94 -1.43 2.36 -1.3 2.44 -1.18 2.51 -1.22 3.04 1.16 3.08 .52 1.69 -.29 .21 -.3 -.21 -1.41 -3.91 -1.24 3.97 -.95 4.08 -.64 4.12 2.44 .91 2.61 .74 3.08 -.67 2.71 -.76 .19 .01 .19 .2 0 .19 -.2 .19 -4.45 1.16 1.13 .23 .09 .27 -.25 .25 -2.51 -.45 -4.79 .72 -.31 -.18 .01 -.28 .14 -.12 3.52 -.5 -3.67 -1.27 -.2 2.14 -.13 4.16 .19 4.14 .52 4.09 .88 4.02 .47 1.63 2.89 -2.12 .28 -.05 .2 .19 -.1 .35 -3.08 2.24 1.07 2.92 1.75 3.67 1.39 2.33 2.43 3.42 2 2.37 2.11 2.14 2.22 1.91 2.31 1.68 2.38 1.44 2.45 1.21 2.48 .97 3.77 1.05 2.52 .42 2.51 .21 3.73 -.09 2.45 -.4 3.66 .43 2.49 .04 2.51 -.15 2.51 -.34 2.51 -.52 2.45 -.68 1.33 .75 2.51 1.18 2.6 .9 2.66 .62 2.68 .31 1.34 .03 1.34 -.05 1.32 -.15 1.31 -.28 1.29 -.05 1.32 .27 1.35 .14 2.77 -.05 2.81 -.46 1.42 -.39 2.8 -1.08 1.37 -.71 1.33 -.84 1.03 -1.17 -3.69 -5.26 -1.31 .47 -3.04 1.88 -3 1.58 -2.05 .88 -3.19 1.16 -1.1 -.07 -3.12 -1.21 -2.87 -1.4 -1.91 -1.14 2.62 -1.66 2.2 -1.6 2.13 -1.73 2.04 -1.87 1.94 -2 1.84 -2.12 1.74 -2.24 1.15 -1.68 .98 .18 1.21 .07 2.09 -.17 2.08 4.75 1.76 5.03 -1 -1.06 -1.44 -1.09 -1.34 -.74 -1.71 -.7 -2.39 -.64 -2.65 -.34 -.44 -.03 -.53 .62 3.64 1.47 4.31 2.12 4.1 2.31 .15 .24 -.1 .26 -.36 .03 -3.54 -2.01 -3.49 -1.77 -4.76 -2.07 -.14 -.12 -.05 -.2 -.59 .65 1.35 1.69 1.55 1.46 1.76 1.26 1.65 .87 1.69 .62 .44 -.28 2.04 -.74 .98 1.39 1.68 -.3 .9 3.98 .93 1.33 -.58 .66 .45 3.25 .28 2.87 .15 .36 .34 .21 .2 .01 .36 -.15 .2 -.33 .02 -.2 -.46 -4.34 -.56 -3.48 -.87 -3.98 -.87 -3.18 -.99 -3.05 -1.11 -2.94 -1.34 -3.08 .92 -.36 1.06 -.63 1.72 -1.62 .79 .81 .96 .62 1.07 .4 1.14 .21 1.17 .04 1.47 -.16 1.4 -.35 1.52 -.62 -.58 -.98 -.94 -1.12 -.88 -.78 -.99 -.65 -1.07 -.49 -1.12 -.29 -1.16 -.08 -1.04 .14 1.26 -1.47 1.05 -1.76 .57 -1.51 .3 -1.73 -.06 -1.7 -.4 -1.62 -.69 -1.45 -1.11 -1.46 -.79 -.74 -1.08 -.74 -.95 -.48 -1.01 -.35 -.43 2.71 4.44 2.33 .61 .38 .07 .27 -.18 .22 -.27 -.02 -2.4 -1.36 -2.39 -1.2 -.7 2.98 1.38 .47 1.46 .18 1.49 -.14 1.56 -.51 .2 1.64 -.21 1.74 -.55 1.54 -1.04 1.69 .12 -2.46 -.22 -2.16 -.98 .45 -1.19 .75 -1.78 1.54 -1.47 1.91 -.58 1.05 -.49 1.27 -.63 -.2 .58 -1.09 .57 -1.38 .39 -1.37 .22 -1.18 -.78 2.06 -1.29 2.88 -.91 -.19 1.09 -2.38 -2.46 2.6 -2.54 2.33 3.72 .38 3.84 .14 2.09 -4.21 1.58 -3.93 .12 -.15 .27 -.03 .15 .11 .04 .28 -.81 2.11 -1.28 2.92 -1.46 2.89 .72 .05 .14 .24 -.12 .25 -1.08 .08 -1.07 1.87 -.33 .15 -.17 -.1 -.06 -.27 .93 -1.65 -3.84 -.16 -4.01 -.44 -.74 .6 -.27 .06 -.21 -.19 -.01 -.19 .41 -.4 -1.2 -.2 -.25 -.26 .03 -.19 .22 -.16 1.84 .28 3.34 -3.06 3.17 -3.47 1.08 -3.16 .79 -2.93 .35 -1.66 -3.86 -1.51 -.2 -.29 .12 -.25 .28 -.04 3.78 1.47 .56 -3.91 .17 -4.92 -.24 -4.67 -.63 -4.49 -.64 -2.87 -.8 -2.78 -1.51 -3.96 -1.69 -3.38 -3.22 -3.12 -3.05 6.45 -.87 -.38 3.21 -6.78 -1.45 -1.52 -.05 -.36 .14 -.13 .27 .01 1.39 1.42 .3 -.57 -2.44 -2.78 -2.87 -2.64 -2.06 -1.56 -1.88 -1.23 -.78 .02 -.02 -.5 -1.7 -.92 -2.32 -1.06 -3.6 -1.28 -3.73 -.91 -2.55 -.38 -1.74 -.16 5.95 4.24 5.94 3.66 -.04 -3.58 .19 -.21 .34 .1 .09 .74 .04 2.6 -.21 4.66 1.37 1.39 1.92 2.28 1.71 2.45 1.5 2.62 1.29 2.8 .74 1.96 .93 3.1 .5 2.17 .55 3.43 .3 3.62 .05 2.53 -.15 3.88 -.31 2.34 -.7 3.52 -.97 3.38 -1.13 3.02 4.87 .34 .17 .08 .1 .26 -.08 .17 -.26 .1 -5.05 -.35 -1.3 2.74 -1.09 2 -1.2 1.93 -1.75 2.48 3.04 -.13 2.84 -.28 .32 .18 -.01 .28 -.23 .15 -2 .22 -4.43 .2 -.29 .36 .99 3 -.1 .35 -.27 .05 -.21 -.18 -.88 -2.64 -1.89 2.14 -2.38 2.36 -2.53 2.17 -2.19 1.64 -1.55 -1.83 -1.63 -2.25 .21 2.79 -.28 .23 -.3 -.19 -.39 -4.01 -1.99 -3.63 1.02 .05 .57 1.09 -.42 -1.95 -2.41 -1.07 -2.67 -1.39 -2.68 -1.62 -.13 -.34 .18 -.21 .28 .03 3.7 2.18 3.55 1.68 -.31 -1.17 .14 -.24 .36 .01 .51 1.69 .56 .23 .1 .16 -.13 .34 -.36 -.01 .61 3.24 2.04 3.05 .27 -1.22 .03 -1.18 -.16 -1.17 -.43 -1.44 -.63 -1.37 -.8 -1.28 -.9 -1.15 -1.15 -1.16 -.07 .09 -.95 -.75 -1.02 -.6 -1.44 -.53 -.29 -.39 -.95 .2 -1.65 .13 -1.53 .54 -4.13 .87 -.25 1.49 .06 .37 .39 .35 .04 .18 -.07 .18 -.24 .11 .04 .3 .75 2.89 1.04 2.78 1.3 2.65 1.52 2.5 1.72 2.35 2.02 2.28 -4.36 1.56 -4.24 1.15 -1.09 .14 -2.67 -.74 -1.41 3.54 -.39 .85 -.22 .18 -.33 -.15 -.01 -.28 1.77 -4.31 -2.94 -1.01 -1.92 -.82 -2.75 -1.45 -1.75 -1.11 -2.49 -1.89 -1.57 -1.41 -1.52 -1.53 -1.46 -1.67 -2.07 -2.78 -1.35 -2.08 -.99 -1.72 -1.6 -3.61 -1.24 -3.85 -.68 -3.05 -.46 -3.17 -.25 -3.25 -.03 -2.21 .06 -2.22 .28 -3.37 .49 -3.37 .66 -3.07 -1.72 1.93 -.36 -.04 -.1 -.26 2.54 -3.05 1.36 -4.28 1.33 -3.28 -1.95 -.45 -.14 -.24 .04 -.18 .33 -.14 1.98 .44 1.14 -2.31 1.65 -2.88 1.83 -2.72 1.93 -2.44 .2 -5.75 -.08 -5.23ZM82.9 102.01l-3.98 1.26 -.2 -.2 .01 -.19 .2 -.2 2.63 -.85 2.78 -1.04 2.64 -1.14 2.5 -1.24 .19 -.03 .23 .16 .03 .18 -.16 .23 -3.58 1.73ZM68.17 106.24l-.16 -.22 .02 -.19 .32 -.17 2.08 .96 1.96 .77 1.95 .62 2.03 .51 .15 .33 -.1 .16 -.27 .07 -2.82 -.73 -2.57 -.93ZM115.05 87.53l-3.05 -1.14 -.03 -.28 .12 -.14 .27 -.03 2.02 .73 2.26 .68 2.23 .52 1.91 .32 .17 .08 .1 .26 -.09 .17 -.26 .09 -2.8 -.5Z"/></svg>
